<svg id="visual" viewBox="0 0 960 540" width="960" height="540" xmlns="http://www.w3.org/2000/svg" xmlns:xlink="http://www.w3.org/1999/xlink" version="1.1"><rect x="0" y="0" width="960" height="540" fill="#001220"></rect><g fill="#A7233A"><circle r="13" cx="745" cy="335"></circle><circle r="1" cx="840" cy="230"></circle><circle r="0" cx="747" cy="200"></circle><circle r="7" cx="192" cy="304"></circle><circle r="3" cx="370" cy="492"></circle><circle r="7" cx="245" cy="419"></circle><circle r="3" cx="868" cy="266"></circle><circle r="0" cx="306" cy="45"></circle><circle r="10" cx="154" cy="517"></circle><circle r="10" cx="882" cy="71"></circle><circle r="3" cx="681" cy="136"></circle><circle r="10" cx="576" cy="112"></circle><circle r="9" cx="809" cy="442"></circle><circle r="11" cx="883" cy="506"></circle><circle r="9" cx="366" cy="341"></circle><circle r="1" cx="876" cy="373"></circle><circle r="1" cx="148" cy="164"></circle><circle r="2" cx="543" cy="245"></circle><circle r="7" cx="614" cy="130"></circle><circle r="6" cx="91" cy="272"></circle><circle r="5" cx="590" cy="256"></circle><circle r="7" cx="484" cy="376"></circle><circle r="5" cx="855" cy="53"></circle><circle r="1" cx="957" cy="144"></circle><circle r="1" cx="146" cy="253"></circle><circle r="6" cx="552" cy="57"></circle><circle r="7" cx="734" cy="458"></circle><circle r="7" cx="230" cy="303"></circle><circle r="6" cx="812" cy="372"></circle><circle r="0" cx="69" cy="513"></circle><circle r="6" cx="542" cy="276"></circle><circle r="6" cx="800" cy="196"></circle><circle r="2" cx="733" cy="5"></circle><circle r="5" cx="692" cy="189"></circle><circle r="3" cx="360" cy="99"></circle><circle r="3" cx="309" cy="358"></circle><circle r="1" cx="597" cy="19"></circle><circle r="5" cx="53" cy="285"></circle><circle r="4" cx="377" cy="251"></circle><circle r="3" cx="54" cy="343"></circle><circle r="11" cx="815" cy="244"></circle><circle r="2" cx="164" cy="398"></circle><circle r="6" cx="743" cy="366"></circle><circle r="9" cx="702" cy="48"></circle><circle r="8" cx="954" cy="396"></circle><circle r="7" cx="119" cy="185"></circle><circle r="7" cx="530" cy="169"></circle><circle r="3" cx="574" cy="4"></circle><circle r="9" cx="687" cy="478"></circle><circle r="0" cx="672" cy="394"></circle><circle r="3" cx="720" cy="513"></circle><circle r="3" cx="171" cy="242"></circle><circle r="9" cx="588" cy="86"></circle><circle r="7" cx="56" cy="89"></circle><circle r="11" cx="601" cy="347"></circle><circle r="1" cx="478" cy="85"></circle><circle r="3" cx="359" cy="408"></circle><circle r="3" cx="541" cy="482"></circle><circle r="11" cx="297" cy="452"></circle><circle r="11" cx="377" cy="216"></circle><circle r="9" cx="598" cy="218"></circle><circle r="5" cx="794" cy="310"></circle><circle r="9" cx="680" cy="63"></circle><circle r="3" cx="85" cy="336"></circle><circle r="4" cx="911" cy="285"></circle><circle r="1" cx="243" cy="123"></circle><circle r="4" cx="333" cy="87"></circle><circle r="9" cx="470" cy="442"></circle><circle r="3" cx="428" cy="298"></circle><circle r="5" cx="216" cy="347"></circle><circle r="6" cx="752" cy="309"></circle><circle r="11" cx="804" cy="167"></circle><circle r="5" cx="496" cy="185"></circle><circle r="4" cx="361" cy="162"></circle><circle r="7" cx="843" cy="158"></circle><circle r="1" cx="329" cy="503"></circle><circle r="7" cx="284" cy="480"></circle><circle r="0" cx="598" cy="48"></circle><circle r="7" cx="242" cy="29"></circle><circle r="5" cx="268" cy="392"></circle><circle r="9" cx="668" cy="432"></circle><circle r="8" cx="776" cy="251"></circle><circle r="6" cx="635" cy="9"></circle><circle r="7" cx="866" cy="185"></circle><circle r="9" cx="267" cy="292"></circle><circle r="3" cx="105" cy="242"></circle><circle r="11" cx="108" cy="357"></circle><circle r="0" cx="231" cy="67"></circle><circle r="6" cx="693" cy="524"></circle><circle r="2" cx="391" cy="527"></circle><circle r="0" cx="336" cy="58"></circle><circle r="11" cx="681" cy="300"></circle><circle r="3" cx="427" cy="261"></circle><circle r="4" cx="222" cy="405"></circle><circle r="2" cx="294" cy="133"></circle><circle r="5" cx="627" cy="84"></circle><circle r="0" cx="380" cy="457"></circle><circle r="7" cx="229" cy="248"></circle><circle r="3" cx="561" cy="87"></circle><circle r="11" cx="235" cy="181"></circle><circle r="2" cx="957" cy="110"></circle><circle r="8" cx="736" cy="121"></circle><circle r="4" cx="17" cy="235"></circle><circle r="1" cx="273" cy="36"></circle><circle r="8" cx="33" cy="142"></circle><circle r="4" cx="958" cy="351"></circle><circle r="10" cx="154" cy="442"></circle><circle r="11" cx="391" cy="25"></circle><circle r="10" cx="116" cy="478"></circle><circle r="9" cx="431" cy="196"></circle><circle r="2" cx="48" cy="530"></circle><circle r="11" cx="804" cy="485"></circle><circle r="2" cx="133" cy="79"></circle><circle r="8" cx="204" cy="272"></circle><circle r="11" cx="958" cy="41"></circle><circle r="2" cx="245" cy="214"></circle><circle r="10" cx="534" cy="536"></circle><circle r="3" cx="912" cy="2"></circle><circle r="2" cx="444" cy="39"></circle><circle r="3" cx="496" cy="332"></circle><circle r="2" cx="188" cy="491"></circle><circle r="9" cx="403" cy="176"></circle><circle r="0" cx="265" cy="253"></circle><circle r="4" cx="916" cy="54"></circle><circle r="7" cx="843" cy="281"></circle><circle r="5" cx="950" cy="465"></circle><circle r="9" cx="829" cy="42"></circle><circle r="8" cx="720" cy="295"></circle><circle r="7" cx="377" cy="370"></circle><circle r="3" cx="549" cy="197"></circle><circle r="4" cx="823" cy="504"></circle><circle r="3" cx="736" cy="538"></circle><circle r="10" cx="258" cy="454"></circle><circle r="11" cx="665" cy="99"></circle><circle r="5" cx="319" cy="12"></circle><circle r="9" cx="694" cy="257"></circle><circle r="11" cx="194" cy="128"></circle><circle r="11" cx="412" cy="493"></circle><circle r="10" cx="407" cy="362"></circle><circle r="2" cx="578" cy="464"></circle><circle r="8" cx="3" cy="300"></circle><circle r="9" cx="306" cy="202"></circle><circle r="0" cx="878" cy="123"></circle><circle r="8" cx="524" cy="54"></circle><circle r="4" cx="523" cy="356"></circle><circle r="4" cx="178" cy="346"></circle><circle r="2" cx="452" cy="322"></circle><circle r="7" cx="400" cy="133"></circle><circle r="3" cx="638" cy="196"></circle><circle r="11" cx="378" cy="54"></circle><circle r="2" cx="720" cy="435"></circle><circle r="3" cx="105" cy="396"></circle><circle r="10" cx="194" cy="439"></circle><circle r="1" cx="80" cy="76"></circle><circle r="8" cx="503" cy="144"></circle><circle r="1" cx="665" cy="460"></circle><circle r="8" cx="14" cy="443"></circle><circle r="6" cx="22" cy="38"></circle><circle r="5" cx="56" cy="396"></circle><circle r="2" cx="894" cy="211"></circle><circle r="3" cx="493" cy="238"></circle><circle r="10" cx="732" cy="412"></circle><circle r="5" cx="190" cy="30"></circle><circle r="2" cx="16" cy="118"></circle><circle r="5" cx="200" cy="200"></circle><circle r="9" cx="217" cy="102"></circle><circle r="1" cx="902" cy="312"></circle><circle r="8" cx="855" cy="513"></circle><circle r="5" cx="279" cy="208"></circle><circle r="3" cx="80" cy="123"></circle><circle r="8" cx="508" cy="443"></circle><circle r="10" cx="444" cy="478"></circle><circle r="2" cx="3" cy="342"></circle><circle r="0" cx="244" cy="537"></circle><circle r="6" cx="497" cy="515"></circle><circle r="5" cx="955" cy="74"></circle><circle r="4" cx="202" cy="375"></circle><circle r="7" cx="437" cy="410"></circle><circle r="6" cx="590" cy="317"></circle><circle r="1" cx="783" cy="63"></circle><circle r="10" cx="358" cy="9"></circle><circle r="11" cx="4" cy="400"></circle><circle r="4" cx="572" cy="169"></circle><circle r="5" cx="708" cy="359"></circle><circle r="11" cx="581" cy="417"></circle><circle r="10" cx="853" cy="12"></circle><circle r="1" cx="946" cy="237"></circle><circle r="0" cx="283" cy="75"></circle><circle r="3" cx="69" cy="249"></circle><circle r="6" cx="150" cy="118"></circle><circle r="11" cx="486" cy="28"></circle><circle r="7" cx="3" cy="271"></circle><circle r="5" cx="113" cy="122"></circle><circle r="2" cx="752" cy="496"></circle><circle r="0" cx="4" cy="192"></circle><circle r="1" cx="494" cy="414"></circle><circle r="4" cx="562" cy="222"></circle><circle r="4" cx="187" cy="156"></circle><circle r="7" cx="870" cy="333"></circle><circle r="0" cx="558" cy="393"></circle><circle r="2" cx="650" cy="237"></circle><circle r="5" cx="663" cy="339"></circle><circle r="4" cx="642" cy="535"></circle><circle r="8" cx="821" cy="302"></circle><circle r="9" cx="93" cy="157"></circle><circle r="8" cx="257" cy="63"></circle><circle r="7" cx="319" cy="170"></circle><circle r="6" cx="900" cy="422"></circle><circle r="1" cx="585" cy="374"></circle><circle r="3" cx="334" cy="456"></circle><circle r="1" cx="795" cy="415"></circle><circle r="5" cx="834" cy="419"></circle><circle r="11" cx="622" cy="391"></circle><circle r="9" cx="739" cy="154"></circle><circle r="1" cx="399" cy="311"></circle><circle r="5" cx="404" cy="443"></circle><circle r="3" cx="460" cy="163"></circle><circle r="6" cx="920" cy="172"></circle><circle r="7" cx="908" cy="386"></circle><circle r="8" cx="780" cy="226"></circle><circle r="2" cx="142" cy="44"></circle><circle r="8" cx="827" cy="111"></circle><circle r="1" cx="518" cy="230"></circle><circle r="4" cx="785" cy="505"></circle><circle r="11" cx="41" cy="372"></circle><circle r="4" cx="520" cy="12"></circle><circle r="10" cx="146" cy="372"></circle><circle r="1" cx="578" cy="139"></circle><circle r="1" cx="4" cy="17"></circle><circle r="0" cx="821" cy="145"></circle><circle r="4" cx="646" cy="278"></circle><circle r="2" cx="326" cy="533"></circle><circle r="2" cx="511" cy="112"></circle><circle r="8" cx="864" cy="409"></circle><circle r="9" cx="773" cy="356"></circle><circle r="8" cx="55" cy="458"></circle><circle r="1" cx="480" cy="304"></circle><circle r="6" cx="108" cy="424"></circle><circle r="2" cx="939" cy="208"></circle><circle r="6" cx="500" cy="483"></circle><circle r="5" cx="424" cy="143"></circle><circle r="11" cx="843" cy="82"></circle><circle r="2" cx="688" cy="162"></circle><circle r="5" cx="369" cy="283"></circle><circle r="9" cx="548" cy="132"></circle><circle r="0" cx="471" cy="199"></circle><circle r="6" cx="842" cy="476"></circle><circle r="7" cx="2" cy="487"></circle><circle r="2" cx="249" cy="495"></circle><circle r="3" cx="160" cy="66"></circle><circle r="11" cx="261" cy="182"></circle><circle r="6" cx="321" cy="426"></circle><circle r="2" cx="348" cy="245"></circle><circle r="7" cx="469" cy="509"></circle><circle r="3" cx="757" cy="432"></circle><circle r="6" cx="589" cy="528"></circle><circle r="6" cx="769" cy="105"></circle><circle r="6" cx="823" cy="16"></circle><circle r="7" cx="95" cy="218"></circle><circle r="3" cx="630" cy="444"></circle><circle r="0" cx="543" cy="416"></circle><circle r="9" cx="138" cy="326"></circle><circle r="3" cx="889" cy="239"></circle><circle r="5" cx="414" cy="90"></circle><circle r="8" cx="775" cy="459"></circle><circle r="7" cx="785" cy="285"></circle><circle r="3" cx="615" cy="278"></circle><circle r="10" cx="111" cy="40"></circle><circle r="9" cx="918" cy="232"></circle><circle r="7" cx="635" cy="505"></circle><circle r="3" cx="653" cy="138"></circle><circle r="4" cx="664" cy="14"></circle><circle r="3" cx="845" cy="318"></circle><circle r="4" cx="247" cy="324"></circle><circle r="6" cx="194" cy="56"></circle><circle r="5" cx="606" cy="504"></circle><circle r="7" cx="401" cy="285"></circle><circle r="5" cx="219" cy="492"></circle><circle r="5" cx="467" cy="59"></circle><circle r="6" cx="677" cy="366"></circle><circle r="10" cx="877" cy="461"></circle><circle r="9" cx="31" cy="206"></circle><circle r="2" cx="220" cy="439"></circle><circle r="6" cx="149" cy="209"></circle><circle r="11" cx="561" cy="524"></circle><circle r="3" cx="41" cy="249"></circle><circle r="9" cx="477" cy="262"></circle><circle r="9" cx="888" cy="98"></circle><circle r="8" cx="343" cy="371"></circle><circle r="8" cx="368" cy="191"></circle><circle r="9" cx="905" cy="135"></circle><circle r="4" cx="425" cy="19"></circle><circle r="6" cx="400" cy="238"></circle><circle r="0" cx="253" cy="97"></circle><circle r="10" cx="619" cy="164"></circle><circle r="2" cx="289" cy="159"></circle><circle r="9" cx="956" cy="537"></circle><circle r="11" cx="704" cy="81"></circle><circle r="1" cx="61" cy="48"></circle><circle r="11" cx="63" cy="207"></circle><circle r="2" cx="289" cy="335"></circle><circle r="5" cx="105" cy="66"></circle><circle r="0" cx="697" cy="406"></circle><circle r="3" cx="137" cy="18"></circle><circle r="7" cx="366" cy="135"></circle><circle r="1" cx="211" cy="520"></circle><circle r="11" cx="854" cy="437"></circle><circle r="6" cx="441" cy="374"></circle><circle r="3" cx="447" cy="124"></circle><circle r="5" cx="728" cy="239"></circle><circle r="7" cx="802" cy="96"></circle><circle r="1" cx="895" cy="353"></circle><circle r="9" cx="957" cy="502"></circle><circle r="0" cx="220" cy="12"></circle><circle r="8" cx="78" cy="179"></circle><circle r="6" cx="2" cy="160"></circle><circle r="8" cx="298" cy="308"></circle><circle r="8" cx="302" cy="281"></circle><circle r="9" cx="81" cy="437"></circle><circle r="7" cx="925" cy="507"></circle><circle r="1" cx="387" cy="410"></circle><circle r="10" cx="717" cy="212"></circle><circle r="0" cx="50" cy="485"></circle><circle r="10" cx="958" cy="279"></circle><circle r="0" cx="508" cy="286"></circle><circle r="6" cx="104" cy="317"></circle><circle r="7" cx="737" cy="85"></circle><circle r="0" cx="296" cy="412"></circle><circle r="9" cx="208" cy="465"></circle><circle r="2" cx="453" cy="349"></circle><circle r="5" cx="809" cy="274"></circle><circle r="2" cx="341" cy="220"></circle><circle r="2" cx="353" cy="532"></circle><circle r="8" cx="951" cy="438"></circle><circle r="6" cx="565" cy="351"></circle><circle r="7" cx="426" cy="524"></circle><circle r="5" cx="879" cy="30"></circle><circle r="6" cx="138" cy="421"></circle><circle r="2" cx="175" cy="93"></circle><circle r="7" cx="113" cy="512"></circle><circle r="10" cx="452" cy="284"></circle><circle r="3" cx="471" cy="474"></circle><circle r="7" cx="921" cy="451"></circle><circle r="7" cx="843" cy="369"></circle><circle r="10" cx="515" cy="395"></circle><circle r="10" cx="369" cy="309"></circle><circle r="3" cx="906" cy="487"></circle><circle r="8" cx="705" cy="16"></circle><circle r="5" cx="173" cy="185"></circle><circle r="0" cx="234" cy="379"></circle><circle r="5" cx="713" cy="144"></circle><circle r="0" cx="556" cy="440"></circle><circle r="2" cx="444" cy="444"></circle><circle r="1" cx="678" cy="217"></circle><circle r="3" cx="446" cy="220"></circle><circle r="1" cx="628" cy="304"></circle><circle r="10" cx="640" cy="56"></circle><circle r="7" cx="136" cy="298"></circle><circle r="7" cx="325" cy="291"></circle><circle r="7" cx="694" cy="451"></circle><circle r="6" cx="946" cy="3"></circle><circle r="5" cx="940" cy="331"></circle><circle r="8" cx="81" cy="378"></circle><circle r="10" cx="715" cy="324"></circle><circle r="3" cx="243" cy="355"></circle><circle r="9" cx="724" cy="34"></circle><circle r="11" cx="331" cy="123"></circle><circle r="5" cx="772" cy="139"></circle><circle r="7" cx="762" cy="398"></circle><circle r="11" cx="805" cy="538"></circle><circle r="10" cx="827" cy="207"></circle><circle r="1" cx="142" cy="485"></circle><circle r="3" cx="185" cy="519"></circle><circle r="11" cx="769" cy="20"></circle><circle r="9" cx="285" cy="528"></circle><circle r="11" cx="272" cy="5"></circle><circle r="3" cx="887" cy="534"></circle><circle r="4" cx="127" cy="449"></circle><circle r="3" cx="455" cy="11"></circle><circle r="0" cx="40" cy="181"></circle><circle r="8" cx="82" cy="28"></circle><circle r="11" cx="166" cy="294"></circle><circle r="6" cx="894" cy="160"></circle><circle r="0" cx="914" cy="88"></circle><circle r="11" cx="358" cy="73"></circle><circle r="1" cx="11" cy="70"></circle><circle r="8" cx="404" cy="211"></circle><circle r="10" cx="392" cy="77"></circle><circle r="8" cx="834" cy="532"></circle><circle r="3" cx="123" cy="269"></circle><circle r="9" cx="556" cy="319"></circle><circle r="9" cx="440" cy="95"></circle><circle r="0" cx="41" cy="436"></circle><circle r="3" cx="359" cy="439"></circle><circle r="7" cx="606" cy="413"></circle><circle r="9" cx="549" cy="22"></circle><circle r="0" cx="304" cy="101"></circle><circle r="11" cx="523" cy="200"></circle><circle r="11" cx="923" cy="364"></circle><circle r="3" cx="635" cy="474"></circle><circle r="8" cx="336" cy="192"></circle><circle r="5" cx="61" cy="156"></circle><circle r="2" cx="200" cy="238"></circle><circle r="0" cx="276" cy="367"></circle><circle r="6" cx="804" cy="50"></circle><circle r="8" cx="228" cy="148"></circle><circle r="6" cx="927" cy="539"></circle><circle r="7" cx="433" cy="68"></circle><circle r="6" cx="643" cy="421"></circle><circle r="5" cx="82" cy="479"></circle><circle r="1" cx="313" cy="227"></circle><circle r="10" cx="105" cy="537"></circle><circle r="0" cx="748" cy="257"></circle><circle r="10" cx="828" cy="342"></circle><circle r="2" cx="757" cy="48"></circle><circle r="0" cx="5" cy="517"></circle><circle r="4" cx="855" cy="105"></circle><circle r="5" cx="335" cy="326"></circle><circle r="0" cx="646" cy="171"></circle><circle r="3" cx="321" cy="252"></circle><circle r="8" cx="869" cy="223"></circle><circle r="0" cx="795" cy="127"></circle><circle r="7" cx="459" cy="534"></circle><circle r="3" cx="190" cy="409"></circle><circle r="7" cx="779" cy="180"></circle><circle r="11" cx="37" cy="310"></circle><circle r="10" cx="418" cy="386"></circle><circle r="3" cx="485" cy="123"></circle><circle r="9" cx="100" cy="3"></circle><circle r="6" cx="461" cy="401"></circle><circle r="11" cx="75" cy="311"></circle><circle r="10" cx="318" cy="397"></circle><circle r="1" cx="51" cy="20"></circle><circle r="10" cx="575" cy="284"></circle><circle r="10" cx="667" cy="496"></circle><circle r="7" cx="923" cy="411"></circle><circle r="11" cx="797" cy="16"></circle><circle r="11" cx="931" cy="26"></circle><circle r="9" cx="523" cy="309"></circle><circle r="4" cx="947" cy="172"></circle><circle r="6" cx="881" cy="295"></circle><circle r="0" cx="930" cy="143"></circle><circle r="4" cx="128" cy="227"></circle><circle r="8" cx="779" cy="539"></circle><circle r="8" cx="939" cy="304"></circle><circle r="9" cx="579" cy="497"></circle><circle r="6" cx="496" cy="62"></circle><circle r="7" cx="163" cy="15"></circle><circle r="0" cx="723" cy="483"></circle><circle r="2" cx="167" cy="469"></circle><circle r="7" cx="881" cy="4"></circle><circle r="1" cx="28" cy="91"></circle><circle r="9" cx="623" cy="249"></circle><circle r="9" cx="719" cy="185"></circle><circle r="4" cx="775" cy="327"></circle><circle r="8" cx="416" cy="46"></circle><circle r="9" cx="425" cy="333"></circle><circle r="1" cx="337" cy="150"></circle><circle r="2" cx="784" cy="381"></circle><circle r="9" cx="119" cy="148"></circle><circle r="0" cx="931" cy="116"></circle><circle r="5" cx="232" cy="274"></circle><circle r="10" cx="294" cy="249"></circle><circle r="5" cx="27" cy="283"></circle><circle r="1" cx="341" cy="30"></circle><circle r="10" cx="606" cy="459"></circle><circle r="1" cx="264" cy="142"></circle><circle r="1" cx="14" cy="371"></circle><circle r="5" cx="80" cy="408"></circle><circle r="11" cx="295" cy="503"></circle><circle r="11" cx="926" cy="259"></circle><circle r="2" cx="280" cy="432"></circle><circle r="2" cx="641" cy="114"></circle><circle r="7" cx="620" cy="34"></circle><circle r="3" cx="597" cy="179"></circle><circle r="4" cx="634" cy="336"></circle><circle r="8" cx="710" cy="118"></circle><circle r="0" cx="37" cy="65"></circle><circle r="5" cx="831" cy="181"></circle><circle r="5" cx="714" cy="386"></circle><circle r="8" cx="650" cy="374"></circle><circle r="10" cx="294" cy="386"></circle><circle r="11" cx="574" cy="38"></circle><circle r="7" cx="210" cy="171"></circle><circle r="6" cx="484" cy="2"></circle><circle r="3" cx="828" cy="393"></circle><circle r="11" cx="531" cy="78"></circle><circle r="11" cx="533" cy="456"></circle><circle r="0" cx="24" cy="467"></circle><circle r="8" cx="168" cy="321"></circle><circle r="10" cx="524" cy="504"></circle><circle r="7" cx="722" cy="265"></circle><circle r="7" cx="625" cy="365"></circle><circle r="1" cx="30" cy="401"></circle><circle r="3" cx="393" cy="104"></circle><circle r="5" cx="577" cy="197"></circle><circle r="3" cx="653" cy="311"></circle><circle r="3" cx="395" cy="337"></circle><circle r="9" cx="675" cy="38"></circle><circle r="11" cx="193" cy="3"></circle><circle r="3" cx="170" cy="268"></circle><circle r="11" cx="314" cy="476"></circle><circle r="6" cx="198" cy="329"></circle><circle r="10" cx="137" cy="539"></circle><circle r="4" cx="175" cy="374"></circle><circle r="7" cx="347" cy="478"></circle><circle r="6" cx="848" cy="130"></circle><circle r="8" cx="72" cy="3"></circle><circle r="5" cx="165" cy="141"></circle><circle r="8" cx="28" cy="6"></circle><circle r="10" cx="47" cy="115"></circle><circle r="1" cx="403" cy="1"></circle><circle r="4" cx="30" cy="502"></circle><circle r="4" cx="168" cy="538"></circle><circle r="1" cx="108" cy="94"></circle><circle r="11" cx="511" cy="259"></circle><circle r="0" cx="564" cy="261"></circle><circle r="4" cx="277" cy="111"></circle><circle r="10" cx="294" cy="20"></circle><circle r="0" cx="234" cy="468"></circle><circle r="2" cx="176" cy="216"></circle><circle r="4" cx="669" cy="533"></circle><circle r="1" cx="801" cy="347"></circle><circle r="2" cx="428" cy="169"></circle><circle r="4" cx="817" cy="74"></circle><circle r="4" cx="221" cy="223"></circle><circle r="8" cx="691" cy="338"></circle><circle r="0" cx="537" cy="107"></circle><circle r="8" cx="452" cy="246"></circle><circle r="8" cx="752" cy="227"></circle><circle r="10" cx="627" cy="222"></circle><circle r="11" cx="19" cy="538"></circle><circle r="6" cx="417" cy="465"></circle><circle r="11" cx="672" cy="273"></circle><circle r="3" cx="217" cy="44"></circle><circle r="0" cx="342" cy="271"></circle><circle r="5" cx="840" cy="256"></circle><circle r="2" cx="746" cy="284"></circle></g></svg>