<svg id="visual" viewBox="0 0 960 540" width="960" height="540" xmlns="http://www.w3.org/2000/svg" xmlns:xlink="http://www.w3.org/1999/xlink" version="1.1"><rect x="0" y="0" width="960" height="540" fill="#A7233A"></rect><path d="M0 215L107 191L213 310L320 183L427 244L533 286L640 231L747 224L853 238L960 314L960 541L853 541L747 541L640 541L533 541L427 541L320 541L213 541L107 541L0 541Z" fill="#4a2352"></path><path d="M0 356L107 361L213 253L320 362L427 282L533 245L640 363L747 260L853 277L960 310L960 541L853 541L747 541L640 541L533 541L427 541L320 541L213 541L107 541L0 541Z" fill="#39234e"></path><path d="M0 304L107 287L213 346L320 319L427 308L533 356L640 389L747 287L853 294L960 279L960 541L853 541L747 541L640 541L533 541L427 541L320 541L213 541L107 541L0 541Z" fill="#292147"></path><path d="M0 421L107 369L213 374L320 416L427 410L533 421L640 327L747 382L853 410L960 410L960 541L853 541L747 541L640 541L533 541L427 541L320 541L213 541L107 541L0 541Z" fill="#1a1f3f"></path><path d="M0 395L107 384L213 423L320 385L427 441L533 369L640 436L747 398L853 429L960 404L960 541L853 541L747 541L640 541L533 541L427 541L320 541L213 541L107 541L0 541Z" fill="#0e1c35"></path><path d="M0 468L107 449L213 481L320 444L427 471L533 424L640 439L747 465L853 482L960 438L960 541L853 541L747 541L640 541L533 541L427 541L320 541L213 541L107 541L0 541Z" fill="#05172b"></path><path d="M0 503L107 493L213 475L320 464L427 509L533 503L640 507L747 490L853 482L960 490L960 541L853 541L747 541L640 541L533 541L427 541L320 541L213 541L107 541L0 541Z" fill="#001220"></path></svg>