<svg id="visual" viewBox="0 0 960 540" width="960" height="540" xmlns="http://www.w3.org/2000/svg" xmlns:xlink="http://www.w3.org/1999/xlink" version="1.1"><rect x="0" y="0" width="960" height="540" fill="#001220"></rect><path d="M0 144L12.3 146.3C24.7 148.7 49.3 153.3 74 154.3C98.7 155.3 123.3 152.7 148 147.5C172.7 142.3 197.3 134.7 221.8 136.5C246.3 138.3 270.7 149.7 295.2 158.5C319.7 167.3 344.3 173.7 369 176.7C393.7 179.7 418.3 179.3 443 172.2C467.7 165 492.3 151 517 149.8C541.7 148.7 566.3 160.3 591 165.5C615.7 170.7 640.3 169.3 664.8 165C689.3 160.7 713.7 153.3 738.2 151.2C762.7 149 787.3 152 812 150.5C836.7 149 861.3 143 886 140C910.7 137 935.3 137 947.7 137L960 137L960 0L947.7 0C935.3 0 910.7 0 886 0C861.3 0 836.7 0 812 0C787.3 0 762.7 0 738.2 0C713.7 0 689.3 0 664.8 0C640.3 0 615.7 0 591 0C566.3 0 541.7 0 517 0C492.3 0 467.7 0 443 0C418.3 0 393.7 0 369 0C344.3 0 319.7 0 295.2 0C270.7 0 246.3 0 221.8 0C197.3 0 172.7 0 148 0C123.3 0 98.7 0 74 0C49.3 0 24.7 0 12.3 0L0 0Z" fill="#a7233a"></path><path d="M0 108L12.3 115.2C24.7 122.3 49.3 136.7 74 137C98.7 137.3 123.3 123.7 148 115.5C172.7 107.3 197.3 104.7 221.8 102.3C246.3 100 270.7 98 295.2 101.7C319.7 105.3 344.3 114.7 369 120.5C393.7 126.3 418.3 128.7 443 124.2C467.7 119.7 492.3 108.3 517 110C541.7 111.7 566.3 126.3 591 132.3C615.7 138.3 640.3 135.7 664.8 127.5C689.3 119.3 713.7 105.7 738.2 106.7C762.7 107.7 787.3 123.3 812 126.5C836.7 129.7 861.3 120.3 886 113C910.7 105.7 935.3 100.3 947.7 97.7L960 95L960 0L947.7 0C935.3 0 910.7 0 886 0C861.3 0 836.7 0 812 0C787.3 0 762.7 0 738.2 0C713.7 0 689.3 0 664.8 0C640.3 0 615.7 0 591 0C566.3 0 541.7 0 517 0C492.3 0 467.7 0 443 0C418.3 0 393.7 0 369 0C344.3 0 319.7 0 295.2 0C270.7 0 246.3 0 221.8 0C197.3 0 172.7 0 148 0C123.3 0 98.7 0 74 0C49.3 0 24.7 0 12.3 0L0 0Z" fill="#881c4e"></path><path d="M0 95L12.3 99.5C24.7 104 49.3 113 74 114C98.7 115 123.3 108 148 102.5C172.7 97 197.3 93 221.8 92.2C246.3 91.3 270.7 93.7 295.2 95.8C319.7 98 344.3 100 369 104.5C393.7 109 418.3 116 443 111.8C467.7 107.7 492.3 92.3 517 87.8C541.7 83.3 566.3 89.7 591 89.5C615.7 89.3 640.3 82.7 664.8 84.2C689.3 85.7 713.7 95.3 738.2 97.7C762.7 100 787.3 95 812 92.7C836.7 90.3 861.3 90.7 886 95.5C910.7 100.3 935.3 109.7 947.7 114.3L960 119L960 0L947.7 0C935.3 0 910.7 0 886 0C861.3 0 836.7 0 812 0C787.3 0 762.7 0 738.2 0C713.7 0 689.3 0 664.8 0C640.3 0 615.7 0 591 0C566.3 0 541.7 0 517 0C492.3 0 467.7 0 443 0C418.3 0 393.7 0 369 0C344.3 0 319.7 0 295.2 0C270.7 0 246.3 0 221.8 0C197.3 0 172.7 0 148 0C123.3 0 98.7 0 74 0C49.3 0 24.7 0 12.3 0L0 0Z" fill="#5f2254"></path><path d="M0 61L12.3 62.7C24.7 64.3 49.3 67.7 74 72.2C98.7 76.7 123.3 82.3 148 84.2C172.7 86 197.3 84 221.8 78.7C246.3 73.3 270.7 64.7 295.2 63.7C319.7 62.7 344.3 69.3 369 69.2C393.7 69 418.3 62 443 65.3C467.7 68.7 492.3 82.3 517 88.8C541.7 95.3 566.3 94.7 591 87.7C615.7 80.7 640.3 67.3 664.8 64.8C689.3 62.3 713.7 70.7 738.2 71C762.7 71.3 787.3 63.7 812 63.3C836.7 63 861.3 70 886 73.3C910.7 76.7 935.3 76.3 947.7 76.2L960 76L960 0L947.7 0C935.3 0 910.7 0 886 0C861.3 0 836.7 0 812 0C787.3 0 762.7 0 738.2 0C713.7 0 689.3 0 664.8 0C640.3 0 615.7 0 591 0C566.3 0 541.7 0 517 0C492.3 0 467.7 0 443 0C418.3 0 393.7 0 369 0C344.3 0 319.7 0 295.2 0C270.7 0 246.3 0 221.8 0C197.3 0 172.7 0 148 0C123.3 0 98.7 0 74 0C49.3 0 24.7 0 12.3 0L0 0Z" fill="#36234c"></path><path d="M0 41L12.3 42.2C24.7 43.3 49.3 45.7 74 45.3C98.7 45 123.3 42 148 44C172.7 46 197.3 53 221.8 57.5C246.3 62 270.7 64 295.2 65.3C319.7 66.7 344.3 67.3 369 63C393.7 58.7 418.3 49.3 443 44.8C467.7 40.3 492.3 40.7 517 44.2C541.7 47.7 566.3 54.3 591 57.2C615.7 60 640.3 59 664.8 57.3C689.3 55.7 713.7 53.3 738.2 54.7C762.7 56 787.3 61 812 63.3C836.7 65.7 861.3 65.3 886 61.5C910.7 57.7 935.3 50.3 947.7 46.7L960 43L960 0L947.7 0C935.3 0 910.7 0 886 0C861.3 0 836.7 0 812 0C787.3 0 762.7 0 738.2 0C713.7 0 689.3 0 664.8 0C640.3 0 615.7 0 591 0C566.3 0 541.7 0 517 0C492.3 0 467.7 0 443 0C418.3 0 393.7 0 369 0C344.3 0 319.7 0 295.2 0C270.7 0 246.3 0 221.8 0C197.3 0 172.7 0 148 0C123.3 0 98.7 0 74 0C49.3 0 24.7 0 12.3 0L0 0Z" fill="#131d39"></path><path d="M0 43L12.3 41.3C24.7 39.7 49.3 36.3 74 34.5C98.7 32.7 123.3 32.3 148 30.3C172.7 28.3 197.3 24.7 221.8 22.7C246.3 20.7 270.7 20.3 295.2 22.5C319.7 24.7 344.3 29.3 369 29.2C393.7 29 418.3 24 443 24.7C467.7 25.3 492.3 31.7 517 32.5C541.7 33.3 566.3 28.7 591 29.3C615.7 30 640.3 36 664.8 37.3C689.3 38.7 713.7 35.3 738.2 32.2C762.7 29 787.3 26 812 24.7C836.7 23.3 861.3 23.7 886 26C910.7 28.3 935.3 32.7 947.7 34.8L960 37L960 0L947.7 0C935.3 0 910.7 0 886 0C861.3 0 836.7 0 812 0C787.3 0 762.7 0 738.2 0C713.7 0 689.3 0 664.8 0C640.3 0 615.7 0 591 0C566.3 0 541.7 0 517 0C492.3 0 467.7 0 443 0C418.3 0 393.7 0 369 0C344.3 0 319.7 0 295.2 0C270.7 0 246.3 0 221.8 0C197.3 0 172.7 0 148 0C123.3 0 98.7 0 74 0C49.3 0 24.7 0 12.3 0L0 0Z" fill="#001220"></path></svg>