<svg id="visual" viewBox="0 0 960 540" width="960" height="540" xmlns="http://www.w3.org/2000/svg" xmlns:xlink="http://www.w3.org/1999/xlink" version="1.1"><rect x="0" y="0" width="960" height="540" fill="#001220"></rect><path d="M0 394L12.3 391.7C24.7 389.3 49.3 384.7 74 383.7C98.7 382.7 123.3 385.3 148 390.5C172.7 395.7 197.3 403.3 221.8 401.5C246.3 399.7 270.7 388.3 295.2 379.5C319.7 370.7 344.3 364.3 369 361.3C393.7 358.3 418.3 358.7 443 365.8C467.7 373 492.3 387 517 388.2C541.7 389.3 566.3 377.7 591 372.5C615.7 367.3 640.3 368.7 664.8 373C689.3 377.3 713.7 384.7 738.2 386.8C762.7 389 787.3 386 812 387.5C836.7 389 861.3 395 886 398C910.7 401 935.3 401 947.7 401L960 401L960 541L947.7 541C935.3 541 910.7 541 886 541C861.3 541 836.7 541 812 541C787.3 541 762.7 541 738.2 541C713.7 541 689.3 541 664.8 541C640.3 541 615.7 541 591 541C566.3 541 541.7 541 517 541C492.3 541 467.7 541 443 541C418.3 541 393.7 541 369 541C344.3 541 319.7 541 295.2 541C270.7 541 246.3 541 221.8 541C197.3 541 172.7 541 148 541C123.3 541 98.7 541 74 541C49.3 541 24.7 541 12.3 541L0 541Z" fill="#a7233a"></path><path d="M0 430L12.3 422.8C24.7 415.7 49.3 401.3 74 401C98.7 400.7 123.3 414.3 148 422.5C172.7 430.7 197.3 433.3 221.8 435.7C246.3 438 270.7 440 295.2 436.3C319.7 432.7 344.3 423.3 369 417.5C393.7 411.7 418.3 409.3 443 413.8C467.7 418.3 492.3 429.7 517 428C541.7 426.3 566.3 411.7 591 405.7C615.7 399.7 640.3 402.3 664.8 410.5C689.3 418.7 713.7 432.3 738.2 431.3C762.7 430.3 787.3 414.7 812 411.5C836.7 408.3 861.3 417.7 886 425C910.7 432.3 935.3 437.7 947.7 440.3L960 443L960 541L947.7 541C935.3 541 910.7 541 886 541C861.3 541 836.7 541 812 541C787.3 541 762.7 541 738.2 541C713.7 541 689.3 541 664.8 541C640.3 541 615.7 541 591 541C566.3 541 541.7 541 517 541C492.3 541 467.7 541 443 541C418.3 541 393.7 541 369 541C344.3 541 319.7 541 295.2 541C270.7 541 246.3 541 221.8 541C197.3 541 172.7 541 148 541C123.3 541 98.7 541 74 541C49.3 541 24.7 541 12.3 541L0 541Z" fill="#881c4e"></path><path d="M0 443L12.3 438.5C24.7 434 49.3 425 74 424C98.7 423 123.3 430 148 435.5C172.7 441 197.3 445 221.8 445.8C246.3 446.7 270.7 444.3 295.2 442.2C319.7 440 344.3 438 369 433.5C393.7 429 418.3 422 443 426.2C467.7 430.3 492.3 445.7 517 450.2C541.7 454.7 566.3 448.3 591 448.5C615.7 448.7 640.3 455.3 664.8 453.8C689.3 452.3 713.7 442.7 738.2 440.3C762.7 438 787.3 443 812 445.3C836.7 447.7 861.3 447.3 886 442.5C910.7 437.7 935.3 428.3 947.7 423.7L960 419L960 541L947.7 541C935.3 541 910.7 541 886 541C861.3 541 836.7 541 812 541C787.3 541 762.7 541 738.2 541C713.7 541 689.3 541 664.8 541C640.3 541 615.7 541 591 541C566.3 541 541.7 541 517 541C492.3 541 467.7 541 443 541C418.3 541 393.7 541 369 541C344.3 541 319.7 541 295.2 541C270.7 541 246.3 541 221.8 541C197.3 541 172.7 541 148 541C123.3 541 98.7 541 74 541C49.3 541 24.7 541 12.3 541L0 541Z" fill="#5f2254"></path><path d="M0 477L12.3 475.3C24.7 473.7 49.3 470.3 74 465.8C98.7 461.3 123.3 455.7 148 453.8C172.7 452 197.3 454 221.8 459.3C246.3 464.7 270.7 473.3 295.2 474.3C319.7 475.3 344.3 468.7 369 468.8C393.7 469 418.3 476 443 472.7C467.7 469.3 492.3 455.7 517 449.2C541.7 442.7 566.3 443.3 591 450.3C615.7 457.3 640.3 470.7 664.8 473.2C689.3 475.7 713.7 467.3 738.2 467C762.7 466.7 787.3 474.3 812 474.7C836.7 475 861.3 468 886 464.7C910.7 461.3 935.3 461.7 947.7 461.8L960 462L960 541L947.7 541C935.3 541 910.7 541 886 541C861.3 541 836.7 541 812 541C787.3 541 762.7 541 738.2 541C713.7 541 689.3 541 664.8 541C640.3 541 615.7 541 591 541C566.3 541 541.7 541 517 541C492.3 541 467.7 541 443 541C418.3 541 393.7 541 369 541C344.3 541 319.7 541 295.2 541C270.7 541 246.3 541 221.8 541C197.3 541 172.7 541 148 541C123.3 541 98.7 541 74 541C49.3 541 24.7 541 12.3 541L0 541Z" fill="#36234c"></path><path d="M0 497L12.3 495.8C24.7 494.7 49.3 492.3 74 492.7C98.7 493 123.3 496 148 494C172.7 492 197.3 485 221.8 480.5C246.3 476 270.7 474 295.2 472.7C319.7 471.3 344.3 470.7 369 475C393.7 479.3 418.3 488.7 443 493.2C467.7 497.7 492.3 497.3 517 493.8C541.7 490.3 566.3 483.7 591 480.8C615.7 478 640.3 479 664.8 480.7C689.3 482.3 713.7 484.7 738.2 483.3C762.7 482 787.3 477 812 474.7C836.7 472.3 861.3 472.7 886 476.5C910.7 480.3 935.3 487.7 947.7 491.3L960 495L960 541L947.7 541C935.3 541 910.7 541 886 541C861.3 541 836.7 541 812 541C787.3 541 762.7 541 738.2 541C713.7 541 689.3 541 664.8 541C640.3 541 615.7 541 591 541C566.3 541 541.7 541 517 541C492.3 541 467.7 541 443 541C418.3 541 393.7 541 369 541C344.3 541 319.7 541 295.2 541C270.7 541 246.3 541 221.8 541C197.3 541 172.7 541 148 541C123.3 541 98.7 541 74 541C49.3 541 24.7 541 12.3 541L0 541Z" fill="#131d39"></path><path d="M0 495L12.3 496.7C24.7 498.3 49.3 501.7 74 503.5C98.7 505.3 123.3 505.7 148 507.7C172.7 509.7 197.3 513.3 221.8 515.3C246.3 517.3 270.7 517.7 295.2 515.5C319.7 513.3 344.3 508.7 369 508.8C393.7 509 418.3 514 443 513.3C467.7 512.7 492.3 506.3 517 505.5C541.7 504.7 566.3 509.3 591 508.7C615.7 508 640.3 502 664.8 500.7C689.3 499.3 713.7 502.7 738.2 505.8C762.7 509 787.3 512 812 513.3C836.7 514.7 861.3 514.3 886 512C910.7 509.7 935.3 505.3 947.7 503.2L960 501L960 541L947.7 541C935.3 541 910.7 541 886 541C861.3 541 836.7 541 812 541C787.3 541 762.7 541 738.2 541C713.7 541 689.3 541 664.8 541C640.3 541 615.7 541 591 541C566.3 541 541.7 541 517 541C492.3 541 467.7 541 443 541C418.3 541 393.7 541 369 541C344.3 541 319.7 541 295.2 541C270.7 541 246.3 541 221.8 541C197.3 541 172.7 541 148 541C123.3 541 98.7 541 74 541C49.3 541 24.7 541 12.3 541L0 541Z" fill="#001220"></path></svg>