<svg id="visual" viewBox="0 0 960 540" width="960" height="540" xmlns="http://www.w3.org/2000/svg" xmlns:xlink="http://www.w3.org/1999/xlink" version="1.1"><path d="M0 228L64 228L64 212L128 212L128 120L192 120L192 185L256 185L256 244L320 244L320 309L384 309L384 163L448 163L448 260L512 260L512 222L576 222L576 239L640 239L640 179L704 179L704 201L768 201L768 109L832 109L832 87L896 87L896 206L960 206L960 158L960 0L960 0L896 0L896 0L832 0L832 0L768 0L768 0L704 0L704 0L640 0L640 0L576 0L576 0L512 0L512 0L448 0L448 0L384 0L384 0L320 0L320 0L256 0L256 0L192 0L192 0L128 0L128 0L64 0L64 0L0 0Z" fill="#a7233a"></path><path d="M0 309L64 309L64 266L128 266L128 314L192 314L192 357L256 357L256 352L320 352L320 390L384 390L384 357L448 357L448 341L512 341L512 293L576 293L576 325L640 325L640 357L704 357L704 390L768 390L768 255L832 255L832 314L896 314L896 255L960 255L960 325L960 156L960 204L896 204L896 85L832 85L832 107L768 107L768 199L704 199L704 177L640 177L640 237L576 237L576 220L512 220L512 258L448 258L448 161L384 161L384 307L320 307L320 242L256 242L256 183L192 183L192 118L128 118L128 210L64 210L64 226L0 226Z" fill="#6d2054"></path><path d="M0 471L64 471L64 411L128 411L128 444L192 444L192 406L256 406L256 422L320 422L320 471L384 471L384 509L448 509L448 465L512 465L512 411L576 411L576 509L640 509L640 455L704 455L704 498L768 498L768 406L832 406L832 433L896 433L896 411L960 411L960 406L960 323L960 253L896 253L896 312L832 312L832 253L768 253L768 388L704 388L704 355L640 355L640 323L576 323L576 291L512 291L512 339L448 339L448 355L384 355L384 388L320 388L320 350L256 350L256 355L192 355L192 312L128 312L128 264L64 264L64 307L0 307Z" fill="#292147"></path><path d="M0 541L64 541L64 541L128 541L128 541L192 541L192 541L256 541L256 541L320 541L320 541L384 541L384 541L448 541L448 541L512 541L512 541L576 541L576 541L640 541L640 541L704 541L704 541L768 541L768 541L832 541L832 541L896 541L896 541L960 541L960 541L960 404L960 409L896 409L896 431L832 431L832 404L768 404L768 496L704 496L704 453L640 453L640 507L576 507L576 409L512 409L512 463L448 463L448 507L384 507L384 469L320 469L320 420L256 420L256 404L192 404L192 442L128 442L128 409L64 409L64 469L0 469Z" fill="#001220"></path></svg>