<svg id="visual" viewBox="0 0 960 540" width="960" height="540" xmlns="http://www.w3.org/2000/svg" xmlns:xlink="http://www.w3.org/1999/xlink" version="1.1"><path d="M0 136L87 195L175 98L262 212L349 174L436 158L524 60L611 163L698 120L785 179L873 136L960 168L960 0L873 0L785 0L698 0L611 0L524 0L436 0L349 0L262 0L175 0L87 0L0 0Z" fill="#001220"></path><path d="M0 179L87 222L175 141L262 255L349 239L436 201L524 109L611 185L698 168L785 206L873 195L960 190L960 166L873 134L785 177L698 118L611 161L524 58L436 156L349 172L262 210L175 96L87 193L0 134Z" fill="#0e1c35"></path><path d="M0 244L87 287L175 228L262 298L349 298L436 276L524 185L611 260L698 244L785 266L873 282L960 282L960 188L873 193L785 204L698 166L611 183L524 107L436 199L349 237L262 253L175 139L87 220L0 177Z" fill="#292147"></path><path d="M0 374L87 363L175 390L262 363L349 352L436 352L524 336L611 401L698 363L785 422L873 368L960 363L960 280L873 280L785 264L698 242L611 258L524 183L436 274L349 296L262 296L175 226L87 285L0 242Z" fill="#4a2352"></path><path d="M0 395L87 384L175 411L262 422L349 406L436 401L524 379L611 422L698 395L785 465L873 390L960 395L960 361L873 366L785 420L698 361L611 399L524 334L436 350L349 350L262 361L175 388L87 361L0 372Z" fill="#6d2054"></path><path d="M0 465L87 482L175 487L262 487L349 476L436 498L524 471L611 509L698 509L785 509L873 471L960 482L960 393L873 388L785 463L698 393L611 420L524 377L436 399L349 404L262 420L175 409L87 382L0 393Z" fill="#8e1c4b"></path><path d="M0 541L87 541L175 541L262 541L349 541L436 541L524 541L611 541L698 541L785 541L873 541L960 541L960 480L873 469L785 507L698 507L611 507L524 469L436 496L349 474L262 485L175 485L87 480L0 463Z" fill="#a7233a"></path></svg>