<svg id="visual" viewBox="0 0 960 540" width="960" height="540" xmlns="http://www.w3.org/2000/svg" xmlns:xlink="http://www.w3.org/1999/xlink" version="1.1"><path d="M0 23L87 33L175 50L262 39L349 39L436 50L524 44L611 33L698 23L785 55L873 28L960 33L960 0L873 0L785 0L698 0L611 0L524 0L436 0L349 0L262 0L175 0L87 0L0 0Z" fill="#001220"></path><path d="M0 71L87 104L175 93L262 93L349 66L436 82L524 77L611 93L698 50L785 77L873 60L960 55L960 31L873 26L785 53L698 21L611 31L524 42L436 48L349 37L262 37L175 48L87 31L0 21Z" fill="#0e1c35"></path><path d="M0 131L87 136L175 152L262 168L349 158L436 168L524 152L611 168L698 125L785 168L873 131L960 114L960 53L873 58L785 75L698 48L611 91L524 75L436 80L349 64L262 91L175 91L87 102L0 69Z" fill="#292147"></path><path d="M0 190L87 174L175 185L262 228L349 206L436 244L524 185L611 212L698 195L785 201L873 195L960 152L960 112L873 129L785 166L698 123L611 166L524 150L436 166L349 156L262 166L175 150L87 134L0 129Z" fill="#4a2352"></path><path d="M0 374L87 341L175 336L262 352L349 298L436 347L524 309L611 428L698 276L785 266L873 298L960 357L960 150L873 193L785 199L698 193L611 210L524 183L436 242L349 204L262 226L175 183L87 172L0 188Z" fill="#6d2054"></path><path d="M0 444L87 411L175 428L262 395L349 374L436 438L524 406L611 471L698 395L785 384L873 374L960 411L960 355L873 296L785 264L698 274L611 426L524 307L436 345L349 296L262 350L175 334L87 339L0 372Z" fill="#8e1c4b"></path><path d="M0 541L87 541L175 541L262 541L349 541L436 541L524 541L611 541L698 541L785 541L873 541L960 541L960 409L873 372L785 382L698 393L611 469L524 404L436 436L349 372L262 393L175 426L87 409L0 442Z" fill="#a7233a"></path></svg>